<svg xmlns="http://www.w3.org/2000/svg" viewBox="0 0 491.09 164.72"><defs><style>.cls-1{fill:#80a8e1;}.cls-2{fill:#d0f7fc;}.cls-3{fill:#fff;}.cls-4{font-size:82.88px;fill:#bcb8b5;letter-spacing:-0.04em;}.cls-13,.cls-4{font-family:MuseoSans-500, Museo Sans;}.cls-5{letter-spacing:-0.11em;}.cls-6{letter-spacing:-0.08em;}.cls-7{letter-spacing:-0.22em;}.cls-8{letter-spacing:-0.08em;}.cls-9{letter-spacing:-0.01em;}.cls-10{letter-spacing:-0.07em;}.cls-11{letter-spacing:-0.1em;}.cls-12{letter-spacing:-0.1em;}.cls-13{font-size:42.99px;fill:#3fcbf5;letter-spacing:-0.1em;}.cls-14{letter-spacing:-0.1em;}.cls-15{letter-spacing:-0.11em;}</style></defs><title>logo</title><g id="Layer_2" data-name="Layer 2"><g id="Layer_1-2" data-name="Layer 1"><path class="cls-1" d="M45,86.42c5.76,3.35,10,8,11.74,14.35,3.78,13.72-3.87,28.69-20.77,30.15-13.67,1.19-24-8.7-28-19.79,2.83-.49,3.81-2.21,3-5a1.19,1.19,0,0,0-1.46-1c-2.05.15-2.57-1-1.55-2.41,3.7-5.09,4-10.71,3.88-16.77-.1-5.36,1.19-10.75,1.88-16.26-2.63.24-4,2.18-6.32,4.2.49-4.72.82-8.66,1.32-12.57,1.31-10.25,3-20.41,6.68-30.12A60.58,60.58,0,0,1,27.15,12.3a8.46,8.46,0,0,1,3-2.11C41,5.56,52.11,1.68,63.85.14c5-.66,9.82,1.16,14.56,2.57,7.34,2.17,14.41,5.1,21.53,7.9A7.39,7.39,0,0,1,103,13.07,80,80,0,0,1,120.1,52.89c1,6.7,1.94,13.38,2.38,20.58-2.23-1.38-3.58-3.45-6.29-3.9a76,76,0,0,1,2.27,19.68c0,5.27-1.26,6.42-6.4,4.89-9-2.65-17.83-5.77-26.86-8.22a76.53,76.53,0,0,0-39.38-.16C45.57,85.82,45.38,86.09,45,86.42Z"/><path class="cls-1" d="M5.2,127.23c0,4.59,0,9.18,0,13.77,0,.77.36,1.87-1,2-1.57.12-1.27-1.09-1.27-2q0-14.05,0-28.11c0-.78-.35-1.88,1-2,1.58-.11,1.27,1.09,1.28,2C5.21,117.66,5.2,122.45,5.2,127.23Z"/><path class="cls-1" d="M4.69,109.69c-1,0-1.91,0-2.86,0-1.35.1-1.86-.44-1.83-1.81s.48-1.69,1.7-1.66c2.09.06,4.19.07,6.29,0,1.35,0,1.83.45,1.83,1.82,0,1.52-.79,1.7-2,1.65S5.74,109.69,4.69,109.69Z"/><path class="cls-2" d="M33.33,127.52c-12.1.14-26.17-13.42-17.53-29.3a9.51,9.51,0,0,1,6-4.93c4.95-1.39,9.85-3,14.72-4.66A6.86,6.86,0,0,1,42,89c9.62,4.48,13.71,12.71,11.44,23.23C51.54,120.91,42.79,127.57,33.33,127.52Z"/><path class="cls-1" d="M118.32,150.7a5,5,0,0,0-5.11-4.42,1.82,1.82,0,0,0-1.34.6,4.68,4.68,0,0,0-.92,3.68c.17-.4.22-.83.36-1.23a1.46,1.46,0,0,1,2.36-.89,3.18,3.18,0,0,1,1.8,3,3.39,3.39,0,0,1-1.76,3.27,9.79,9.79,0,0,1-4.49,1.12,15.9,15.9,0,0,1-11.7-4.63c-2.73-2.58-4.93-5.63-7.45-8.38-3.71-4-8-7-13.65-7.47-4.39-.38-8.24.67-11.2,4.11-.37.44-.45.24-.7-.06a10.8,10.8,0,0,0-4-3c-3.73-1.62-7.5-1.34-11.26-.15a21.69,21.69,0,0,0-9.49,6.6c-2.12,2.36-4.15,4.82-6.28,7.18a16.64,16.64,0,0,1-11,5.78,11.18,11.18,0,0,1-6.41-1.07,3.38,3.38,0,0,1-1.78-3.25,3.2,3.2,0,0,1,1.8-3,1.45,1.45,0,0,1,2.36.87,11.19,11.19,0,0,1,.31,1.27,5.05,5.05,0,0,0-.14-2.48,2.4,2.4,0,0,0-3.2-1.72,5.08,5.08,0,0,0-4.12,5.17,10.48,10.48,0,0,0,3.95,8.56c3.3,2.82,7.27,4,11.5,4.42A48.25,48.25,0,0,0,38,164.07a49.72,49.72,0,0,0,16.28-4.9c3.88-2,7.62-4.19,10.38-7.7.25-.32.32-.14.46.06a15.79,15.79,0,0,0,2.93,3,45.18,45.18,0,0,0,16,8,61.25,61.25,0,0,0,13.66,2.15A27.7,27.7,0,0,0,109.56,163c3.74-1.5,6.83-3.72,8.31-7.69a10.75,10.75,0,0,0,.31-1.11v0a9.51,9.51,0,0,1,.16-1.07C118.36,152.31,118.33,151.49,118.32,150.7Z"/><path class="cls-3" d="M19.06,115.3a11.2,11.2,0,0,1-2.67-5.76,13.43,13.43,0,0,1,.55-6.52,12.22,12.22,0,0,1,3.72-5.5,8.89,8.89,0,0,1,6-2.19A22.6,22.6,0,0,0,23,99.67a21.16,21.16,0,0,0-2.24,4.65,27.33,27.33,0,0,0-1.2,5.14C19.28,111.27,19.18,113.16,19.06,115.3Z"/><text class="cls-4" transform="translate(116.32 82.55)"><tspan xml:space="preserve">  </tspan><tspan class="cls-5" x="35.47" y="0">M</tspan><tspan class="cls-6" x="98.04" y="0">r</tspan><tspan x="122.66" y="0">.</tspan><tspan class="cls-7" x="140.15" y="0"> </tspan><tspan class="cls-8" x="143.46" y="0">C</tspan><tspan class="cls-9" x="196.75" y="0">r</tspan><tspan class="cls-10" x="226.67" y="0">y</tspan><tspan class="cls-11" x="263.3" y="0">p</tspan><tspan class="cls-12" x="304.66" y="0">t</tspan><tspan x="326.29" y="0">o</tspan></text><text class="cls-13" transform="translate(225.68 141.52)">A<tspan class="cls-14" x="22.53" y="0">CADE</tspan><tspan class="cls-15" x="119.8" y="0">M</tspan><tspan class="cls-14" x="152.3" y="0">Y</tspan></text></g></g></svg>