<?xml version="1.0" encoding="utf-8"?>
<!-- Generator: Adobe Illustrator 22.1.0, SVG Export Plug-In . SVG Version: 6.00 Build 0)  -->
<svg version="1.1" id="Capa_1" xmlns="http://www.w3.org/2000/svg" xmlns:xlink="http://www.w3.org/1999/xlink" x="0px" y="0px"
	 viewBox="0 0 20 20" style="enable-background:new 0 0 20 20;" xml:space="preserve">
<g>
	<path d="M16.6,8.1h-0.4V6.3c0-3.4-2.7-6.2-6-6.3c-0.1,0-0.3,0-0.4,0c-3.3,0.1-6,2.9-6,6.3v1.8H3.4c-0.6,0-1.1,0.6-1.1,1.4v9.1
		c0,0.8,0.5,1.4,1.1,1.4h13.2c0.6,0,1.1-0.6,1.1-1.4V9.5C17.7,8.7,17.2,8.1,16.6,8.1z M11.2,14v2.8c0,0.3-0.3,0.6-0.6,0.6H9.3
		c-0.3,0-0.6-0.3-0.6-0.6V14c-0.3-0.3-0.5-0.7-0.5-1.2c0-0.9,0.7-1.6,1.5-1.7c0.1,0,0.3,0,0.4,0c0.9,0,1.5,0.8,1.5,1.7
		C11.7,13.3,11.5,13.7,11.2,14z M13.6,8.1h-3.5H9.8H6.4V6.3c0-2,1.6-3.7,3.6-3.7s3.6,1.7,3.6,3.7L13.6,8.1L13.6,8.1z"/>
</g>
</svg>
