<svg xmlns="http://www.w3.org/2000/svg" viewBox="0 0 500 500"><defs><style>.cls-1{fill:#ed1d1d;}.cls-2{fill:#5b5b5b;}.cls-3{fill:#bfbbbb;}</style></defs><title>Asset 2</title><g id="Layer_2" data-name="Layer 2"><g id="Layer_1-2" data-name="Layer 1"><circle class="cls-1" cx="250" cy="250" r="250"/><path d="M217.22,256.93c11.26,6.54,19.51,15.59,22.94,28,7.38,26.8-7.57,56-40.58,58.9-26.69,2.31-46.94-17-54.74-38.65,5.52-1,7.44-4.32,5.91-9.88-.48-1.73-1.53-2-2.87-1.88-4,.29-5-2-3-4.71,7.23-9.94,7.8-20.93,7.57-32.77-.21-10.47,2.31-21,3.67-31.76-5.14.48-7.88,4.27-12.34,8.22.95-9.23,1.59-16.92,2.57-24.56,2.55-20,5.8-39.86,13.06-58.83a118.12,118.12,0,0,1,23-36.87,16.35,16.35,0,0,1,5.92-4.12C209.51,99,231.18,91.43,254.1,88.41c9.8-1.29,19.17,2.28,28.44,5,14.34,4.24,28.15,10,42,15.42a14.7,14.7,0,0,1,6,4.81c18.47,22.78,29.17,48.87,33.32,77.79,1.88,13.07,3.81,26.13,4.66,40.18-4.36-2.68-7-6.73-12.29-7.61a148.27,148.27,0,0,1,4.44,38.43c0,10.3-2.45,12.54-12.51,9.56-17.53-5.19-34.81-11.28-52.44-16.06a149.55,149.55,0,0,0-76.94-.31C218.4,255.76,218,256.28,217.22,256.93Z"/><path d="M139.54,336.63c0,9,0,17.93,0,26.89,0,1.51.7,3.66-1.95,3.85-3.07.21-2.48-2.14-2.49-3.88q0-27.45,0-54.91c0-1.51-.7-3.65,1.95-3.84,3.07-.22,2.48,2.14,2.49,3.87C139.56,318,139.54,327.29,139.54,336.63Z"/><path d="M138.55,302.38c-1.86,0-3.73-.11-5.58,0-2.64.2-3.63-.86-3.58-3.53.06-2.41.94-3.31,3.32-3.25,4.09.12,8.19.14,12.28,0,2.64-.1,3.57.88,3.59,3.54,0,3-1.55,3.34-3.89,3.24C142.65,302.31,140.6,302.38,138.55,302.38Z"/><path class="cls-2" d="M194.49,337.2c-23.64.27-51.12-26.21-34.24-57.22a18.51,18.51,0,0,1,11.69-9.63c9.68-2.72,19.24-5.88,28.76-9.11a13.47,13.47,0,0,1,10.68.74c18.79,8.75,26.79,24.84,22.34,45.37C230.05,324.3,213,337.29,194.49,337.2Z"/><path d="M360.49,382.47c-.52-6-6-8.71-10-8.63a3.56,3.56,0,0,0-2.61,1.17c-1.88,2.07-1.95,4.61-1.79,7.19.32-.78.43-1.61.7-2.39.84-2.35,2.43-2.95,4.59-1.75a6.25,6.25,0,0,1,3.54,5.81c0,2.71-.88,5-3.44,6.37a19.19,19.19,0,0,1-8.77,2.2c-8.89.23-16.46-3-22.87-9.05-5.32-5-9.61-11-14.55-16.37-7.24-7.89-15.63-13.61-26.66-14.58-8.57-.75-16.09,1.29-21.86,8-.72.84-.89.46-1.37-.12a21.14,21.14,0,0,0-7.89-5.92c-7.29-3.16-14.64-2.62-22-.3C218,356.5,212.16,361.3,207,367c-4.16,4.61-8.11,9.41-12.27,14-5.74,6.36-12.75,10.43-21.41,11.29a21.84,21.84,0,0,1-12.52-2.09c-2.59-1.33-3.44-3.65-3.47-6.36a6.24,6.24,0,0,1,3.51-5.82c2.17-1.21,3.77-.63,4.61,1.71a23.15,23.15,0,0,1,.6,2.49,9.94,9.94,0,0,0-.28-4.86c-.94-3-3.2-4.16-6.24-3.35-5.14,1.36-7.92,4.78-8.06,10.1-.17,6.83,2.64,12.37,7.73,16.72,6.44,5.5,14.19,7.79,22.46,8.63,7.37.74,14.67,0,22-.93a96.75,96.75,0,0,0,31.8-9.56c7.59-3.88,14.88-8.19,20.27-15,.5-.63.63-.27.9.11a30.27,30.27,0,0,0,5.74,5.79,88,88,0,0,0,31.23,15.67,118.79,118.79,0,0,0,26.69,4.2c7.88.41,15.68-.23,23.11-3.2s13.34-7.27,16.23-15c.27-.71.4-1.45.61-2.18,0,0,0,0,0-.06a17.5,17.5,0,0,1,.32-2.07C360.57,385.62,360.51,384,360.49,382.47Z"/><path class="cls-3" d="M166.62,313.34a21.93,21.93,0,0,1-5.22-11.25,26.48,26.48,0,0,1,1.07-12.74,24,24,0,0,1,7.27-10.73,17.4,17.4,0,0,1,11.79-4.3,45.45,45.45,0,0,0-7.26,8.49,41.52,41.52,0,0,0-4.37,9.09,53.2,53.2,0,0,0-2.34,10C167,305.47,166.87,309.15,166.62,313.34Z"/></g></g></svg>