<svg xmlns="http://www.w3.org/2000/svg" viewBox="0 0 500 500"><defs><style>.cls-1{fill:#449cf2;}.cls-2{fill:#fff;}</style></defs><title>Asset 4</title><g id="Layer_2" data-name="Layer 2"><g id="Layer_1-2" data-name="Layer 1"><circle class="cls-1" cx="250" cy="250" r="250"/><path class="cls-2" d="M381.37,143v31.43q-3.39-5.88-7.3-11.46a151.55,151.55,0,0,0-271.34,51.49,19.64,19.64,0,1,0,38.2,9.19A112.12,112.12,0,0,1,250,137.77a111.32,111.32,0,0,1,67.47,22.53,113.61,113.61,0,0,1,31.85,37.46H327.6a19.65,19.65,0,1,0,0,39.29H401a19.65,19.65,0,0,0,19.65-19.65V143a19.65,19.65,0,0,0-39.29,0Z"/><path class="cls-2" d="M99,376.66A19.65,19.65,0,0,0,118.63,357V325.46a151.48,151.48,0,0,0,131.28,76.05h.19A151.56,151.56,0,0,0,397.27,285.56a19.64,19.64,0,1,0-38.2-9.19,112.21,112.21,0,0,1-208.38,25.87H172.4a19.65,19.65,0,1,0,0-39.29H99A19.65,19.65,0,0,0,79.34,282.6V357A19.65,19.65,0,0,0,99,376.66Z"/></g></g></svg>